<?xml version="1.0" encoding="UTF-8"?><svg id="Layer_2" xmlns="http://www.w3.org/2000/svg" viewBox="0 0 263.62 263.62"><defs><style>.cls-1{fill:#8f00bb;stroke-width:0px;}</style></defs><g id="Layer_3"><path class="cls-1" d="M263.62,131.81c0,72.8-59.01,131.81-131.81,131.81S0,204.61,0,131.81,59.01,0,131.81,0s131.81,59.01,131.81,131.81ZM45.89,181.42c7.83,13.56,25.16,18.2,38.72,10.37,13.56-7.83,18.2-25.16,10.38-38.72-7.83-13.56-25.16-18.2-38.72-10.37s-18.2,25.16-10.38,38.72ZM217.73,181.42c7.83-13.56,3.18-30.89-10.38-38.72-13.56-7.83-30.89-3.18-38.72,10.37-7.83,13.56-3.18,30.89,10.38,38.72,13.56,7.83,30.89,3.18,38.72-10.37ZM131.81,32.6c-15.66,0-28.35,12.69-28.35,28.35,0,15.66,12.69,28.35,28.35,28.35,15.66,0,28.35-12.69,28.35-28.35,0-15.66-12.69-28.35-28.35-28.35Z"/></g></svg>