<svg width="2006" height="3552" viewBox="0 0 2006 3552" fill="none" xmlns="http://www.w3.org/2000/svg">
<g clip-path="url(#clip0_184_263)">
<rect width="3552" height="2006" transform="matrix(0 -1 1 0 0 3552)" fill="#27B6BF" fill-opacity="0.08"/>
<path d="M1010.19 1750.58C1019.51 1802.68 1071.24 1965.33 1079.37 1989.64C1087.52 2013.85 1093.61 2038.18 1095.63 2054.98C1097.67 2071.76 1103.78 2099.8 1130.27 2150.19C1142.46 2172.57 1150.56 2187.54 1152.61 2198.71C1154.65 2209.95 1152.61 2277.17 1156.65 2305.21C1160.74 2333.2 1189.19 2434.04 1227.87 2510.57C1235.97 2529.25 1264.45 2585.25 1254.3 2633.79C1244.15 2682.36 1244.15 2701.06 1270.58 2704.77C1307.16 2712.25 1329.56 2719.72 1343.77 2736.51C1351.93 2743.97 1382.48 2760.77 1412.95 2753.31C1423.15 2758.95 1443.55 2760.8 1451.65 2751.46C1461.8 2751.46 1465.89 2738.39 1463.79 2727.2L1447.59 2712.28C1447.59 2712.28 1402.8 2695.46 1390.6 2684.24C1378.36 2673.05 1301.13 2643.18 1294.97 2391.08C1292.98 2336.95 1299.01 2288.38 1288.86 2245.45C1278.71 2202.49 1252.23 2112.86 1252.23 2112.86C1254.27 2034.43 1250.23 1870.12 1217.69 1700.21C1213.55 1677.8 1209.54 1646.06 1209.54 1616.19C1209.54 1586.27 1191.18 1477.85 1183.1 1464.81C1185.1 1451.74 1183.1 1434.91 1181.06 1414.39C1179.01 1393.83 1181.11 1343.58 1183.1 1330.49C1185.15 1317.45 1193.31 1294.99 1195.35 1267.03C1197.34 1238.99 1207.49 1220.31 1211.64 1197.93C1215.62 1231.5 1227.89 1298.77 1236.02 1319.3C1238.07 1349.17 1244.18 1369.72 1250.26 1382.76C1246.17 1421.99 1307.57 1549.64 1350.31 1624.29C1352.01 1690.18 1350.42 1717.08 1353.19 1738.01C1353.19 1738.01 1356.77 1787.17 1358.14 1802.34C1359.41 1817.48 1375.4 1812.44 1376.29 1804.09L1379.92 1754.68L1386.11 1754.34L1396.88 1811.67C1402.13 1828.15 1415.29 1820.96 1416.39 1811.67L1415.56 1756.19L1419.76 1754.76L1440.05 1810.17C1448.72 1832.62 1463.33 1820.89 1460.72 1808.41L1447.16 1747.99L1452.41 1746.6C1452.41 1746.6 1469.85 1778.32 1477.6 1795C1485.81 1812.71 1500.1 1803.74 1495.53 1790.21C1492 1779.76 1479.81 1739.88 1472.97 1719.5C1466.08 1699.15 1481.85 1695 1495.26 1702.88C1523.22 1717.75 1533.37 1709.35 1530.54 1698.75C1510.03 1690.18 1484.6 1670.86 1471.76 1648.95C1461.56 1631.09 1443.25 1620.86 1423.34 1598.31C1394.83 1559.05 1386.59 1476.14 1382.48 1446.25C1374.37 1384.64 1353.97 1323.03 1335.69 1296.87C1339.73 1252.06 1331.66 1210.95 1323.5 1181.08C1352.01 1011.17 1286.87 953.262 1252.28 942.071C1246.17 934.586 1221.78 921.517 1213.63 917.787C1109.86 876.705 1087.2 868.552 1080.09 848.715C1075.01 834.609 1073.93 805.286 1073.85 786.239C1077 776.58 1083.84 756.273 1083.84 756.273C1083.84 756.273 1094.04 756.273 1096.08 750.665C1098.13 745.057 1107.23 725.467 1110.27 716.129C1113.31 706.791 1111.32 689.992 1111.32 686.262C1111.32 682.507 1104.43 682.309 1098.29 682.309L1103.14 666.647C1106.23 647.971 1106.66 599.798 1084.89 571.438C1065.53 546.216 1038.1 535 1002.44 535C966.775 535 939.428 546.166 920.102 571.414C898.3 599.774 898.73 647.971 901.826 666.622L906.671 682.285C900.588 682.285 893.67 682.482 893.67 686.237C893.67 689.968 891.651 706.766 894.693 716.104C897.734 725.467 906.859 745.057 908.959 750.64C910.977 756.248 921.125 756.248 921.125 756.248C921.125 756.248 927.989 776.555 931.165 786.214C931.057 805.261 930.007 834.584 924.947 848.69C917.814 868.528 895.123 876.68 791.387 917.762C783.231 921.493 758.845 934.586 752.734 942.046C718.12 953.237 653.035 1011.14 681.513 1181.06C673.384 1210.92 665.255 1252.01 669.293 1296.84C650.99 1323.01 630.641 1384.62 622.512 1446.23C618.447 1476.12 610.13 1559.03 581.652 1598.28C561.734 1620.84 543.431 1631.06 533.229 1648.92C520.363 1670.84 494.981 1690.15 474.47 1698.73C471.59 1709.33 481.765 1717.72 509.731 1702.85C523.162 1694.97 538.936 1699.12 532.072 1719.48C525.208 1739.86 513.015 1779.73 509.462 1790.18C504.913 1803.74 519.206 1812.69 527.415 1794.97C535.14 1778.3 552.555 1746.58 552.555 1746.58L557.858 1747.96L544.292 1808.39C541.627 1820.86 556.243 1832.6 564.964 1810.14L585.205 1754.73L589.458 1756.16L588.624 1811.65C589.7 1820.94 602.782 1828.13 608.058 1811.65L618.905 1754.31L625.069 1754.66L628.649 1804.06C629.591 1812.41 645.499 1817.45 646.844 1802.31C648.19 1787.17 651.797 1737.98 651.797 1737.98C654.543 1717.06 652.954 1690.15 654.65 1624.27C697.367 1549.61 758.791 1421.97 754.699 1382.74C760.809 1369.7 766.92 1349.14 768.938 1319.28C777.067 1298.75 789.287 1231.48 793.352 1197.9C797.416 1220.29 807.617 1238.96 809.609 1267C811.655 1294.99 819.811 1317.42 821.829 1330.47C823.875 1343.56 825.975 1393.81 823.902 1414.36C821.883 1434.89 819.865 1451.71 821.883 1464.78C813.754 1477.82 795.424 1586.25 795.424 1616.17C795.424 1646.03 791.387 1677.78 787.295 1700.18C754.753 1870.1 750.689 2034.4 752.708 2112.84C752.708 2112.84 726.248 2202.46 716.074 2245.42C705.9 2288.34 711.983 2336.9 709.964 2391.08C703.827 2643.16 626.549 2673.02 614.329 2684.22C602.136 2695.43 557.347 2712.25 557.347 2712.25L541.089 2727.18C539.043 2738.37 543.108 2751.43 553.282 2751.43C561.411 2760.77 581.787 2758.94 591.935 2753.29C622.458 2760.77 652.981 2743.97 661.11 2736.49C675.349 2719.69 697.717 2712.23 734.324 2704.74C760.783 2701.04 760.783 2682.34 750.608 2633.77C740.434 2585.25 768.911 2529.22 777.04 2510.55C815.719 2433.99 844.197 2333.17 848.262 2305.18C852.353 2277.14 850.307 2209.95 852.353 2198.68C854.345 2187.52 862.474 2172.55 874.694 2150.17C901.126 2099.77 907.236 2071.71 909.282 2054.96C911.3 2038.16 917.41 2013.85 925.566 1989.62C933.695 1965.33 985.294 1802.68 994.715 1750.56C997.111 1738.11 1008.82 1742.72 1010.19 1750.58Z" fill="#AFDBDF" fill-opacity="0.66"/>
<path d="M1025 1182H1008.93L1007 1203L1025 1182Z" fill="#D9D9D9"/>
<ellipse cx="1009" cy="1138.5" rx="64" ry="61.5" fill="#FFBC3A"/>
<ellipse cx="1009" cy="1418.5" rx="64" ry="62.5" fill="#72CAE5"/>
<ellipse cx="1009" cy="1558" rx="64" ry="62" fill="#BA72E5"/>
<ellipse cx="1009" cy="1278.5" rx="64" ry="62.5" fill="#6DB67D"/>
<path d="M228.8 206.12H244.64L261.32 265.4L277.76 206.12H289.52L305.96 265.4L322.64 206.12H338.48L314.6 290H300.44L283.64 231.68L266.84 290H252.68L228.8 206.12ZM373.873 291.8C363.153 291.8 354.673 289.12 348.433 283.76C342.193 278.4 339.073 270.92 339.073 261.32C339.073 251.88 341.833 244.4 347.353 238.88C352.873 233.36 360.753 230.6 370.993 230.6C377.713 230.6 383.433 231.88 388.153 234.44C392.953 237 396.553 240.52 398.953 245C401.353 249.4 402.553 254.44 402.553 260.12V267.08H353.473C354.513 275.64 361.953 279.92 375.793 279.92C379.473 279.92 383.233 279.6 387.073 278.96C390.913 278.32 394.273 277.44 397.153 276.32V287.96C394.433 289.08 390.913 290 386.593 290.72C382.353 291.44 378.113 291.8 373.873 291.8ZM388.273 256.76C388.113 252.2 386.473 248.68 383.353 246.2C380.313 243.72 376.113 242.48 370.753 242.48C365.473 242.48 361.313 243.76 358.273 246.32C355.233 248.88 353.633 252.36 353.473 256.76H388.273ZM446.998 291.8C436.278 291.8 427.798 289.12 421.558 283.76C415.318 278.4 412.198 270.92 412.198 261.32C412.198 251.88 414.958 244.4 420.478 238.88C425.998 233.36 433.878 230.6 444.118 230.6C450.838 230.6 456.558 231.88 461.278 234.44C466.078 237 469.678 240.52 472.078 245C474.478 249.4 475.678 254.44 475.678 260.12V267.08H426.598C427.638 275.64 435.078 279.92 448.918 279.92C452.598 279.92 456.358 279.6 460.198 278.96C464.038 278.32 467.398 277.44 470.278 276.32V287.96C467.558 289.08 464.038 290 459.718 290.72C455.478 291.44 451.238 291.8 446.998 291.8ZM461.398 256.76C461.238 252.2 459.598 248.68 456.478 246.2C453.438 243.72 449.238 242.48 443.878 242.48C438.598 242.48 434.438 243.76 431.398 246.32C428.358 248.88 426.758 252.36 426.598 256.76H461.398ZM487.723 201.32H502.843V257.72L525.763 232.4H543.523L517.843 260.6L546.403 290H528.643L502.843 263.36V290H487.723V201.32ZM558.388 201.32H573.508V290H558.388V201.32ZM601.719 313.76C599.639 313.76 597.439 313.6 595.119 313.28C592.879 313.04 591.119 312.68 589.839 312.2V300.68C591.839 301.48 594.319 301.88 597.279 301.88C600.319 301.88 602.599 301.2 604.119 299.84C605.639 298.48 606.959 296.32 608.079 293.36L610.359 287.36L585.519 232.4H600.759L618.519 274.4L635.199 232.4H650.319L625.119 295.16C622.559 301.48 619.439 306.16 615.759 309.2C612.159 312.24 607.479 313.76 601.719 313.76ZM703.114 206.12H736.714C745.914 206.12 753.274 208.56 758.794 213.44C764.394 218.32 767.194 225 767.194 233.48C767.194 242.28 764.434 249 758.914 253.64C753.394 258.2 745.954 260.48 736.594 260.48H718.354V290H703.114V206.12ZM734.794 247.88C746.234 247.88 751.954 243.08 751.954 233.48C751.954 223.64 746.234 218.72 734.794 218.72H718.354V247.88H734.794ZM776.825 201.32H791.945V290H776.825V201.32ZM827.476 291.8C820.596 291.8 814.956 290 810.556 286.4C806.156 282.72 803.956 277.8 803.956 271.64C803.956 265.24 806.036 260.24 810.196 256.64C814.356 253.04 820.196 251.24 827.716 251.24C834.996 251.24 841.276 252.72 846.556 255.68V254.12C846.556 250.04 845.276 247.08 842.716 245.24C840.236 243.4 836.196 242.48 830.596 242.48C827.076 242.48 823.596 242.84 820.156 243.56C816.716 244.2 813.676 245.12 811.036 246.32V234.44C813.436 233.32 816.636 232.4 820.636 231.68C824.716 230.96 828.636 230.6 832.396 230.6C842.396 230.6 849.796 232.76 854.596 237.08C859.396 241.32 861.796 247.24 861.796 254.84V290H847.516V284.36C845.036 286.76 842.196 288.6 838.996 289.88C835.876 291.16 832.036 291.8 827.476 291.8ZM831.196 280.76C834.556 280.76 837.596 280.12 840.316 278.84C843.036 277.48 845.116 275.64 846.556 273.32V266.96C842.156 263.84 837.116 262.28 831.436 262.28C823.356 262.28 819.316 265.4 819.316 271.64C819.316 274.68 820.316 276.96 822.316 278.48C824.396 280 827.356 280.76 831.196 280.76ZM875.614 232.4H890.254V240.2C892.974 236.92 896.214 234.52 899.974 233C903.734 231.4 907.694 230.6 911.854 230.6C919.614 230.6 925.414 232.72 929.254 236.96C933.094 241.12 935.014 246.68 935.014 253.64V290H919.894V255.08C919.894 246.68 915.974 242.48 908.134 242.48C904.694 242.48 901.454 243.32 898.414 245C895.374 246.6 892.814 249.04 890.734 252.32V290H875.614V232.4ZM995.818 243.92H987.298V232.4H995.818V222.44C995.818 215.4 997.898 210.04 1002.06 206.36C1006.22 202.6 1011.7 200.72 1018.5 200.72C1022.34 200.72 1025.7 201.28 1028.58 202.4V214.64C1026.42 213.68 1024.06 213.2 1021.5 213.2C1017.9 213.2 1015.22 214 1013.46 215.6C1011.78 217.2 1010.94 219.84 1010.94 223.52V232.4H1024.98V243.92H1010.94V290H995.818V243.92ZM1062.91 291.8C1056.19 291.8 1050.27 290.6 1045.15 288.2C1040.11 285.72 1036.19 282.2 1033.39 277.64C1030.59 273 1029.19 267.52 1029.19 261.2C1029.19 255.04 1030.55 249.68 1033.27 245.12C1036.07 240.48 1040.03 236.92 1045.15 234.44C1050.27 231.88 1056.19 230.6 1062.91 230.6C1069.63 230.6 1075.51 231.88 1080.55 234.44C1085.67 236.92 1089.63 240.48 1092.43 245.12C1095.23 249.68 1096.63 255.04 1096.63 261.2C1096.63 267.52 1095.23 273 1092.43 277.64C1089.63 282.2 1085.67 285.72 1080.55 288.2C1075.51 290.6 1069.63 291.8 1062.91 291.8ZM1062.91 279.92C1068.43 279.92 1072.83 278.2 1076.11 274.76C1079.39 271.24 1081.03 266.72 1081.03 261.2C1081.03 255.36 1079.39 250.8 1076.11 247.52C1072.91 244.16 1068.51 242.48 1062.91 242.48C1057.31 242.48 1052.87 244.16 1049.59 247.52C1046.39 250.8 1044.79 255.36 1044.79 261.2C1044.79 266.72 1046.43 271.24 1049.71 274.76C1052.99 278.2 1057.39 279.92 1062.91 279.92ZM1108.58 232.4H1123.22V241.64C1125.54 238.52 1128.82 236.2 1133.06 234.68C1137.38 233.16 1142.3 232.4 1147.82 232.4V243.92C1141.98 243.92 1136.9 244.84 1132.58 246.68C1128.34 248.44 1125.38 251.24 1123.7 255.08V290H1108.58V232.4ZM1224.93 291.8C1219.97 291.8 1215.05 291.32 1210.17 290.36C1205.37 289.48 1201.41 288.28 1198.29 286.76V273.68C1202.29 275.6 1206.49 277.04 1210.89 278C1215.29 278.96 1219.61 279.44 1223.85 279.44C1229.21 279.44 1233.29 278.44 1236.09 276.44C1238.89 274.44 1240.29 271.68 1240.29 268.16C1240.29 265.68 1239.65 263.64 1238.37 262.04C1237.09 260.36 1235.21 258.92 1232.73 257.72C1230.25 256.44 1226.45 254.8 1221.33 252.8C1213.49 249.6 1207.81 246.04 1204.29 242.12C1200.77 238.2 1199.01 233.32 1199.01 227.48C1199.01 222.92 1200.25 218.88 1202.73 215.36C1205.21 211.84 1208.69 209.12 1213.17 207.2C1217.65 205.28 1222.81 204.32 1228.65 204.32C1233.45 204.32 1237.69 204.72 1241.37 205.52C1245.13 206.24 1248.81 207.4 1252.41 209V221.72C1245.45 218.36 1238.41 216.68 1231.29 216.68C1226.17 216.68 1222.21 217.64 1219.41 219.56C1216.61 221.4 1215.21 224.04 1215.21 227.48C1215.21 229.96 1215.85 232 1217.13 233.6C1218.41 235.12 1220.09 236.44 1222.17 237.56C1224.33 238.6 1228.17 240.28 1233.69 242.6C1239.29 244.92 1243.69 247.2 1246.89 249.44C1250.17 251.68 1252.61 254.32 1254.21 257.36C1255.89 260.32 1256.73 263.96 1256.73 268.28C1256.73 275.72 1254.05 281.52 1248.69 285.68C1243.33 289.76 1235.41 291.8 1224.93 291.8ZM1288.14 291.8C1281.26 291.8 1275.62 290 1271.22 286.4C1266.82 282.72 1264.62 277.8 1264.62 271.64C1264.62 265.24 1266.7 260.24 1270.86 256.64C1275.02 253.04 1280.86 251.24 1288.38 251.24C1295.66 251.24 1301.94 252.72 1307.22 255.68V254.12C1307.22 250.04 1305.94 247.08 1303.38 245.24C1300.9 243.4 1296.86 242.48 1291.26 242.48C1287.74 242.48 1284.26 242.84 1280.82 243.56C1277.38 244.2 1274.34 245.12 1271.7 246.32V234.44C1274.1 233.32 1277.3 232.4 1281.3 231.68C1285.38 230.96 1289.3 230.6 1293.06 230.6C1303.06 230.6 1310.46 232.76 1315.26 237.08C1320.06 241.32 1322.46 247.24 1322.46 254.84V290H1308.18V284.36C1305.7 286.76 1302.86 288.6 1299.66 289.88C1296.54 291.16 1292.7 291.8 1288.14 291.8ZM1291.86 280.76C1295.22 280.76 1298.26 280.12 1300.98 278.84C1303.7 277.48 1305.78 275.64 1307.22 273.32V266.96C1302.82 263.84 1297.78 262.28 1292.1 262.28C1284.02 262.28 1279.98 265.4 1279.98 271.64C1279.98 274.68 1280.98 276.96 1282.98 278.48C1285.06 280 1288.02 280.76 1291.86 280.76ZM1336.28 232.4H1350.92V240.2C1353.64 236.92 1356.88 234.52 1360.64 233C1364.4 231.4 1368.36 230.6 1372.52 230.6C1380.28 230.6 1386.08 232.72 1389.92 236.96C1393.76 241.12 1395.68 246.68 1395.68 253.64V290H1380.56V255.08C1380.56 246.68 1376.64 242.48 1368.8 242.48C1365.36 242.48 1362.12 243.32 1359.08 245C1356.04 246.6 1353.48 249.04 1351.4 252.32V290H1336.28V232.4ZM1417.44 222.32C1415.04 222.32 1413 221.52 1411.32 219.92C1409.72 218.32 1408.92 216.32 1408.92 213.92C1408.92 211.6 1409.72 209.64 1411.32 208.04C1413 206.36 1415.04 205.52 1417.44 205.52C1419.76 205.52 1421.76 206.36 1423.44 208.04C1425.12 209.64 1425.96 211.6 1425.96 213.92C1425.96 216.32 1425.12 218.32 1423.44 219.92C1421.84 221.52 1419.84 222.32 1417.44 222.32ZM1402.8 317.72C1398.96 317.72 1395.6 317.2 1392.72 316.16V303.92C1394.88 304.88 1397.36 305.36 1400.16 305.36C1403.44 305.36 1405.88 304.52 1407.48 302.84C1409.08 301.24 1409.88 298.68 1409.88 295.16V232.4H1425V296.72C1425 303.68 1423 308.92 1419 312.44C1415 315.96 1409.6 317.72 1402.8 317.72ZM1440.34 201.32H1455.46V239.72C1460.9 233.64 1467.94 230.6 1476.58 230.6C1484.34 230.6 1490.14 232.72 1493.98 236.96C1497.82 241.12 1499.74 246.68 1499.74 253.64V290H1484.62V255.08C1484.62 246.68 1480.7 242.48 1472.86 242.48C1469.42 242.48 1466.18 243.32 1463.14 245C1460.1 246.6 1457.54 249.04 1455.46 252.32V290H1440.34V201.32ZM1532.95 291.8C1526.07 291.8 1520.43 290 1516.03 286.4C1511.63 282.72 1509.43 277.8 1509.43 271.64C1509.43 265.24 1511.51 260.24 1515.67 256.64C1519.83 253.04 1525.67 251.24 1533.19 251.24C1540.47 251.24 1546.75 252.72 1552.03 255.68V254.12C1552.03 250.04 1550.75 247.08 1548.19 245.24C1545.71 243.4 1541.67 242.48 1536.07 242.48C1532.55 242.48 1529.07 242.84 1525.63 243.56C1522.19 244.2 1519.15 245.12 1516.51 246.32V234.44C1518.91 233.32 1522.11 232.4 1526.11 231.68C1530.19 230.96 1534.11 230.6 1537.87 230.6C1547.87 230.6 1555.27 232.76 1560.07 237.08C1564.87 241.32 1567.27 247.24 1567.27 254.84V290H1552.99V284.36C1550.51 286.76 1547.67 288.6 1544.47 289.88C1541.35 291.16 1537.51 291.8 1532.95 291.8ZM1536.67 280.76C1540.03 280.76 1543.07 280.12 1545.79 278.84C1548.51 277.48 1550.59 275.64 1552.03 273.32V266.96C1547.63 263.84 1542.59 262.28 1536.91 262.28C1528.83 262.28 1524.79 265.4 1524.79 271.64C1524.79 274.68 1525.79 276.96 1527.79 278.48C1529.87 280 1532.83 280.76 1536.67 280.76ZM1581.08 201.32H1596.2V290H1581.08V201.32Z" fill="black"/>
</g>
<defs>
<clipPath id="clip0_184_263">
<rect width="3552" height="2006" fill="white" transform="matrix(0 -1 1 0 0 3552)"/>
</clipPath>
</defs>
</svg>
