<svg width="122" height="50" viewBox="0 0 122 50" fill="none" xmlns="http://www.w3.org/2000/svg">
<rect y="50" width="50" height="122" rx="25" transform="rotate(-90 0 50)" fill="#D4C1EC"/>
<path d="M43.56 22.1C43.2 21.4067 42.7 20.8867 42.06 20.54C41.42 20.18 40.68 20 39.84 20C38.92 20 38.1 20.2067 37.38 20.62C36.66 21.0333 36.0933 21.62 35.68 22.38C35.28 23.14 35.08 24.02 35.08 25.02C35.08 26.02 35.28 26.9067 35.68 27.68C36.0933 28.44 36.66 29.0267 37.38 29.44C38.1 29.8533 38.92 30.06 39.84 30.06C41.08 30.06 42.0867 29.7133 42.86 29.02C43.6333 28.3267 44.1067 27.3867 44.28 26.2H39.06V24.38H46.72V26.16C46.5733 27.24 46.1867 28.2333 45.56 29.14C44.9467 30.0467 44.14 30.7733 43.14 31.32C42.1533 31.8533 41.0533 32.12 39.84 32.12C38.5333 32.12 37.34 31.82 36.26 31.22C35.18 30.6067 34.32 29.76 33.68 28.68C33.0533 27.6 32.74 26.38 32.74 25.02C32.74 23.66 33.0533 22.44 33.68 21.36C34.32 20.28 35.18 19.44 36.26 18.84C37.3533 18.2267 38.5467 17.92 39.84 17.92C41.32 17.92 42.6333 18.2867 43.78 19.02C44.94 19.74 45.78 20.7667 46.3 22.1H43.56ZM53.7488 32.18C52.7088 32.18 51.7688 31.9467 50.9288 31.48C50.0888 31 49.4288 30.3333 48.9488 29.48C48.4688 28.6133 48.2288 27.6133 48.2288 26.48C48.2288 25.36 48.4754 24.3667 48.9688 23.5C49.4621 22.6333 50.1354 21.9667 50.9888 21.5C51.8421 21.0333 52.7954 20.8 53.8488 20.8C54.9021 20.8 55.8554 21.0333 56.7088 21.5C57.5621 21.9667 58.2354 22.6333 58.7288 23.5C59.2221 24.3667 59.4688 25.36 59.4688 26.48C59.4688 27.6 59.2154 28.5933 58.7088 29.46C58.2021 30.3267 57.5088 31 56.6288 31.48C55.7621 31.9467 54.8021 32.18 53.7488 32.18ZM53.7488 30.2C54.3354 30.2 54.8821 30.06 55.3888 29.78C55.9088 29.5 56.3288 29.08 56.6488 28.52C56.9688 27.96 57.1288 27.28 57.1288 26.48C57.1288 25.68 56.9754 25.0067 56.6688 24.46C56.3621 23.9 55.9554 23.48 55.4488 23.2C54.9421 22.92 54.3954 22.78 53.8088 22.78C53.2221 22.78 52.6754 22.92 52.1688 23.2C51.6754 23.48 51.2821 23.9 50.9888 24.46C50.6954 25.0067 50.5488 25.68 50.5488 26.48C50.5488 27.6667 50.8488 28.5867 51.4488 29.24C52.0621 29.88 52.8288 30.2 53.7488 30.2ZM60.9627 26.44C60.9627 25.3333 61.1893 24.3533 61.6427 23.5C62.1093 22.6467 62.736 21.9867 63.5227 21.52C64.3227 21.04 65.2027 20.8 66.1627 20.8C67.0293 20.8 67.7827 20.9733 68.4227 21.32C69.076 21.6533 69.596 22.0733 69.9827 22.58V20.98H72.2827V32H69.9827V30.36C69.596 30.88 69.0693 31.3133 68.4027 31.66C67.736 32.0067 66.976 32.18 66.1227 32.18C65.176 32.18 64.3093 31.94 63.5227 31.46C62.736 30.9667 62.1093 30.2867 61.6427 29.42C61.1893 28.54 60.9627 27.5467 60.9627 26.44ZM69.9827 26.48C69.9827 25.72 69.8227 25.06 69.5027 24.5C69.196 23.94 68.7893 23.5133 68.2827 23.22C67.776 22.9267 67.2293 22.78 66.6427 22.78C66.056 22.78 65.5093 22.9267 65.0027 23.22C64.496 23.5 64.0827 23.92 63.7627 24.48C63.456 25.0267 63.3027 25.68 63.3027 26.44C63.3027 27.2 63.456 27.8667 63.7627 28.44C64.0827 29.0133 64.496 29.4533 65.0027 29.76C65.5227 30.0533 66.0693 30.2 66.6427 30.2C67.2293 30.2 67.776 30.0533 68.2827 29.76C68.7893 29.4667 69.196 29.04 69.5027 28.48C69.8227 27.9067 69.9827 27.24 69.9827 26.48ZM77.5573 17.2V32H75.2773V17.2H77.5573ZM84.5508 32.18C83.6841 32.18 82.9041 32.0267 82.2108 31.72C81.5308 31.4 80.9908 30.9733 80.5908 30.44C80.1908 29.8933 79.9774 29.2867 79.9508 28.62H82.3108C82.3508 29.0867 82.5708 29.48 82.9708 29.8C83.3841 30.1067 83.8974 30.26 84.5108 30.26C85.1508 30.26 85.6441 30.14 85.9908 29.9C86.3508 29.6467 86.5308 29.3267 86.5308 28.94C86.5308 28.5267 86.3308 28.22 85.9308 28.02C85.5441 27.82 84.9241 27.6 84.0708 27.36C83.2441 27.1333 82.5708 26.9133 82.0508 26.7C81.5308 26.4867 81.0774 26.16 80.6908 25.72C80.3174 25.28 80.1308 24.7 80.1308 23.98C80.1308 23.3933 80.3041 22.86 80.6508 22.38C80.9974 21.8867 81.4908 21.5 82.1308 21.22C82.7841 20.94 83.5308 20.8 84.3708 20.8C85.6241 20.8 86.6308 21.12 87.3908 21.76C88.1641 22.3867 88.5774 23.2467 88.6308 24.34H86.3508C86.3108 23.8467 86.1108 23.4533 85.7508 23.16C85.3908 22.8667 84.9041 22.72 84.2908 22.72C83.6908 22.72 83.2308 22.8333 82.9108 23.06C82.5908 23.2867 82.4308 23.5867 82.4308 23.96C82.4308 24.2533 82.5374 24.5 82.7508 24.7C82.9641 24.9 83.2241 25.06 83.5308 25.18C83.8374 25.2867 84.2908 25.4267 84.8908 25.6C85.6908 25.8133 86.3441 26.0333 86.8508 26.26C87.3708 26.4733 87.8174 26.7933 88.1908 27.22C88.5641 27.6467 88.7574 28.2133 88.7708 28.92C88.7708 29.5467 88.5974 30.1067 88.2508 30.6C87.9041 31.0933 87.4108 31.48 86.7708 31.76C86.1441 32.04 85.4041 32.18 84.5508 32.18Z" fill="black"/>
</svg>
