<svg width="108" height="51" viewBox="0 0 108 51" fill="none" xmlns="http://www.w3.org/2000/svg">
<rect x="0.5" y="0.5" width="107" height="50" rx="25" fill="#ECB5B5"/>
<path d="M21.72 22.74C21.72 23.4467 21.5533 24.1133 21.22 24.74C20.8867 25.3667 20.3533 25.88 19.62 26.28C18.8867 26.6667 17.9467 26.86 16.8 26.86H14.28L14.28 32.5H12L12 18.6H16.8C17.8667 18.6 18.7667 18.7867 19.5 19.16C20.2467 19.52 20.8 20.0133 21.16 20.64C21.5333 21.2667 21.72 21.9667 21.72 22.74ZM16.8 25C17.6667 25 18.3133 24.8067 18.74 24.42C19.1667 24.02 19.38 23.46 19.38 22.74C19.38 21.22 18.52 20.46 16.8 20.46H14.28V25H16.8ZM26.1745 23.08C26.5079 22.52 26.9479 22.0867 27.4945 21.78C28.0545 21.46 28.7145 21.3 29.4745 21.3V23.66H28.8945C28.0012 23.66 27.3212 23.8867 26.8545 24.34C26.4012 24.7933 26.1745 25.58 26.1745 26.7V32.5H23.8945V21.48H26.1745V23.08ZM32.7303 20.02C32.317 20.02 31.9703 19.88 31.6903 19.6C31.4103 19.32 31.2703 18.9733 31.2703 18.56C31.2703 18.1467 31.4103 17.8 31.6903 17.52C31.9703 17.24 32.317 17.1 32.7303 17.1C33.1303 17.1 33.4703 17.24 33.7503 17.52C34.0303 17.8 34.1703 18.1467 34.1703 18.56C34.1703 18.9733 34.0303 19.32 33.7503 19.6C33.4703 19.88 33.1303 20.02 32.7303 20.02ZM33.8503 21.48V32.5H31.5703V21.48H33.8503ZM41.6238 32.68C40.5838 32.68 39.6438 32.4467 38.8038 31.98C37.9638 31.5 37.3038 30.8333 36.8238 29.98C36.3438 29.1133 36.1038 28.1133 36.1038 26.98C36.1038 25.86 36.3504 24.8667 36.8438 24C37.3371 23.1333 38.0104 22.4667 38.8638 22C39.7171 21.5333 40.6704 21.3 41.7238 21.3C42.7771 21.3 43.7304 21.5333 44.5838 22C45.4371 22.4667 46.1104 23.1333 46.6038 24C47.0971 24.8667 47.3438 25.86 47.3438 26.98C47.3438 28.1 47.0904 29.0933 46.5838 29.96C46.0771 30.8267 45.3838 31.5 44.5038 31.98C43.6371 32.4467 42.6771 32.68 41.6238 32.68ZM41.6238 30.7C42.2104 30.7 42.7571 30.56 43.2638 30.28C43.7838 30 44.2038 29.58 44.5238 29.02C44.8438 28.46 45.0038 27.78 45.0038 26.98C45.0038 26.18 44.8504 25.5067 44.5438 24.96C44.2371 24.4 43.8304 23.98 43.3238 23.7C42.8171 23.42 42.2704 23.28 41.6838 23.28C41.0971 23.28 40.5504 23.42 40.0438 23.7C39.5504 23.98 39.1571 24.4 38.8638 24.96C38.5704 25.5067 38.4238 26.18 38.4238 26.98C38.4238 28.1667 38.7238 29.0867 39.3238 29.74C39.9371 30.38 40.7038 30.7 41.6238 30.7ZM51.8777 23.08C52.211 22.52 52.651 22.0867 53.1977 21.78C53.7577 21.46 54.4177 21.3 55.1777 21.3V23.66H54.5977C53.7043 23.66 53.0243 23.8867 52.5577 24.34C52.1043 24.7933 51.8777 25.58 51.8777 26.7V32.5H49.5977V21.48H51.8777V23.08ZM58.4334 20.02C58.0201 20.02 57.6734 19.88 57.3934 19.6C57.1134 19.32 56.9734 18.9733 56.9734 18.56C56.9734 18.1467 57.1134 17.8 57.3934 17.52C57.6734 17.24 58.0201 17.1 58.4334 17.1C58.8334 17.1 59.1734 17.24 59.4534 17.52C59.7334 17.8 59.8734 18.1467 59.8734 18.56C59.8734 18.9733 59.7334 19.32 59.4534 19.6C59.1734 19.88 58.8334 20.02 58.4334 20.02ZM59.5534 21.48V32.5H57.2734V21.48H59.5534ZM65.2069 23.34V29.44C65.2069 29.8533 65.3002 30.1533 65.4869 30.34C65.6869 30.5133 66.0202 30.6 66.4869 30.6H67.8869V32.5H66.0869C65.0602 32.5 64.2735 32.26 63.7269 31.78C63.1802 31.3 62.9069 30.52 62.9069 29.44V23.34H61.6069V21.48H62.9069V18.74H65.2069V21.48H67.8869V23.34H65.2069ZM71.1483 20.02C70.7349 20.02 70.3883 19.88 70.1083 19.6C69.8283 19.32 69.6883 18.9733 69.6883 18.56C69.6883 18.1467 69.8283 17.8 70.1083 17.52C70.3883 17.24 70.7349 17.1 71.1483 17.1C71.5483 17.1 71.8883 17.24 72.1683 17.52C72.4483 17.8 72.5883 18.1467 72.5883 18.56C72.5883 18.9733 72.4483 19.32 72.1683 19.6C71.8883 19.88 71.5483 20.02 71.1483 20.02ZM72.2683 21.48V32.5H69.9883V21.48H72.2683ZM85.3617 26.72C85.3617 27.1333 85.3351 27.5067 85.2817 27.84H76.8617C76.9284 28.72 77.2551 29.4267 77.8417 29.96C78.4284 30.4933 79.1484 30.76 80.0017 30.76C81.2284 30.76 82.0951 30.2467 82.6017 29.22H85.0617C84.7284 30.2333 84.1217 31.0667 83.2417 31.72C82.3751 32.36 81.2951 32.68 80.0017 32.68C78.9484 32.68 78.0017 32.4467 77.1617 31.98C76.3351 31.5 75.6817 30.8333 75.2017 29.98C74.7351 29.1133 74.5017 28.1133 74.5017 26.98C74.5017 25.8467 74.7284 24.8533 75.1817 24C75.6484 23.1333 76.2951 22.4667 77.1217 22C77.9617 21.5333 78.9217 21.3 80.0017 21.3C81.0417 21.3 81.9684 21.5267 82.7817 21.98C83.5951 22.4333 84.2284 23.0733 84.6817 23.9C85.1351 24.7133 85.3617 25.6533 85.3617 26.72ZM82.9817 26C82.9684 25.16 82.6684 24.4867 82.0817 23.98C81.4951 23.4733 80.7684 23.22 79.9017 23.22C79.1151 23.22 78.4417 23.4733 77.8817 23.98C77.3217 24.4733 76.9884 25.1467 76.8817 26H82.9817ZM91.6055 32.68C90.7388 32.68 89.9588 32.5267 89.2655 32.22C88.5855 31.9 88.0455 31.4733 87.6455 30.94C87.2455 30.3933 87.0321 29.7867 87.0055 29.12H89.3655C89.4055 29.5867 89.6255 29.98 90.0255 30.3C90.4388 30.6067 90.9521 30.76 91.5655 30.76C92.2055 30.76 92.6988 30.64 93.0455 30.4C93.4055 30.1467 93.5855 29.8267 93.5855 29.44C93.5855 29.0267 93.3855 28.72 92.9855 28.52C92.5988 28.32 91.9788 28.1 91.1255 27.86C90.2988 27.6333 89.6255 27.4133 89.1055 27.2C88.5855 26.9867 88.1321 26.66 87.7455 26.22C87.3721 25.78 87.1855 25.2 87.1855 24.48C87.1855 23.8933 87.3588 23.36 87.7055 22.88C88.0521 22.3867 88.5455 22 89.1855 21.72C89.8388 21.44 90.5855 21.3 91.4255 21.3C92.6788 21.3 93.6855 21.62 94.4455 22.26C95.2188 22.8867 95.6321 23.7467 95.6855 24.84H93.4055C93.3655 24.3467 93.1655 23.9533 92.8055 23.66C92.4455 23.3667 91.9588 23.22 91.3455 23.22C90.7455 23.22 90.2855 23.3333 89.9655 23.56C89.6455 23.7867 89.4855 24.0867 89.4855 24.46C89.4855 24.7533 89.5921 25 89.8055 25.2C90.0188 25.4 90.2788 25.56 90.5855 25.68C90.8921 25.7867 91.3455 25.9267 91.9455 26.1C92.7455 26.3133 93.3988 26.5333 93.9055 26.76C94.4255 26.9733 94.8721 27.2933 95.2455 27.72C95.6188 28.1467 95.8121 28.7133 95.8255 29.42C95.8255 30.0467 95.6521 30.6067 95.3055 31.1C94.9588 31.5933 94.4655 31.98 93.8255 32.26C93.1988 32.54 92.4588 32.68 91.6055 32.68Z" fill="black"/>
</svg>
