<svg width="110" height="50" viewBox="0 0 110 50" fill="none" xmlns="http://www.w3.org/2000/svg">
<rect width="110" height="50" rx="25" fill="#AAC6F0"/>
<path d="M35.22 22.24C35.22 22.9467 35.0533 23.6133 34.72 24.24C34.3867 24.8667 33.8533 25.38 33.12 25.78C32.3867 26.1667 31.4467 26.36 30.3 26.36H27.78V32H25.5V18.1H30.3C31.3667 18.1 32.2667 18.2867 33 18.66C33.7467 19.02 34.3 19.5133 34.66 20.14C35.0333 20.7667 35.22 21.4667 35.22 22.24ZM30.3 24.5C31.1667 24.5 31.8133 24.3067 32.24 23.92C32.6667 23.52 32.88 22.96 32.88 22.24C32.88 20.72 32.02 19.96 30.3 19.96H27.78V24.5H30.3ZM39.6745 22.58C40.0079 22.02 40.4479 21.5867 40.9945 21.28C41.5545 20.96 42.2145 20.8 42.9745 20.8V23.16H42.3945C41.5012 23.16 40.8212 23.3867 40.3545 23.84C39.9012 24.2933 39.6745 25.08 39.6745 26.2V32H37.3945V20.98H39.6745V22.58ZM49.8503 32.18C48.8103 32.18 47.8703 31.9467 47.0303 31.48C46.1903 31 45.5303 30.3333 45.0503 29.48C44.5703 28.6133 44.3303 27.6133 44.3303 26.48C44.3303 25.36 44.577 24.3667 45.0703 23.5C45.5636 22.6333 46.237 21.9667 47.0903 21.5C47.9436 21.0333 48.897 20.8 49.9503 20.8C51.0036 20.8 51.957 21.0333 52.8103 21.5C53.6636 21.9667 54.337 22.6333 54.8303 23.5C55.3236 24.3667 55.5703 25.36 55.5703 26.48C55.5703 27.6 55.317 28.5933 54.8103 29.46C54.3036 30.3267 53.6103 31 52.7303 31.48C51.8636 31.9467 50.9036 32.18 49.8503 32.18ZM49.8503 30.2C50.437 30.2 50.9836 30.06 51.4903 29.78C52.0103 29.5 52.4303 29.08 52.7503 28.52C53.0703 27.96 53.2303 27.28 53.2303 26.48C53.2303 25.68 53.077 25.0067 52.7703 24.46C52.4636 23.9 52.057 23.48 51.5503 23.2C51.0436 22.92 50.497 22.78 49.9103 22.78C49.3236 22.78 48.777 22.92 48.2703 23.2C47.777 23.48 47.3836 23.9 47.0903 24.46C46.797 25.0067 46.6503 25.68 46.6503 26.48C46.6503 27.6667 46.9503 28.5867 47.5503 29.24C48.1636 29.88 48.9303 30.2 49.8503 30.2ZM62.4442 22.84H60.4042V32H58.1042V22.84H56.8042V20.98H58.1042V20.2C58.1042 18.9333 58.4376 18.0133 59.1042 17.44C59.7842 16.8533 60.8442 16.56 62.2842 16.56V18.46C61.5909 18.46 61.1042 18.5933 60.8242 18.86C60.5442 19.1133 60.4042 19.56 60.4042 20.2V20.98H62.4442V22.84ZM65.6248 19.52C65.2115 19.52 64.8648 19.38 64.5848 19.1C64.3048 18.82 64.1648 18.4733 64.1648 18.06C64.1648 17.6467 64.3048 17.3 64.5848 17.02C64.8648 16.74 65.2115 16.6 65.6248 16.6C66.0248 16.6 66.3648 16.74 66.6448 17.02C66.9248 17.3 67.0648 17.6467 67.0648 18.06C67.0648 18.4733 66.9248 18.82 66.6448 19.1C66.3648 19.38 66.0248 19.52 65.6248 19.52ZM66.7448 20.98V32H64.4648V20.98H66.7448ZM72.0183 17.2V32H69.7383V17.2H72.0183ZM85.1117 26.22C85.1117 26.6333 85.0851 27.0067 85.0317 27.34H76.6117C76.6784 28.22 77.0051 28.9267 77.5917 29.46C78.1784 29.9933 78.8984 30.26 79.7517 30.26C80.9784 30.26 81.8451 29.7467 82.3517 28.72H84.8117C84.4784 29.7333 83.8717 30.5667 82.9917 31.22C82.1251 31.86 81.0451 32.18 79.7517 32.18C78.6984 32.18 77.7517 31.9467 76.9117 31.48C76.0851 31 75.4317 30.3333 74.9517 29.48C74.4851 28.6133 74.2517 27.6133 74.2517 26.48C74.2517 25.3467 74.4784 24.3533 74.9317 23.5C75.3984 22.6333 76.0451 21.9667 76.8717 21.5C77.7117 21.0333 78.6717 20.8 79.7517 20.8C80.7917 20.8 81.7184 21.0267 82.5317 21.48C83.3451 21.9333 83.9784 22.5733 84.4317 23.4C84.8851 24.2133 85.1117 25.1533 85.1117 26.22ZM82.7317 25.5C82.7184 24.66 82.4184 23.9867 81.8317 23.48C81.2451 22.9733 80.5184 22.72 79.6517 22.72C78.8651 22.72 78.1917 22.9733 77.6317 23.48C77.0717 23.9733 76.7384 24.6467 76.6317 25.5H82.7317Z" fill="black"/>
</svg>
