<svg width="126" height="50" viewBox="0 0 126 50" fill="none" xmlns="http://www.w3.org/2000/svg">
<rect y="50" width="50" height="126" rx="25" transform="rotate(-90 0 50)" fill="#BFEFE6"/>
<path d="M22.08 32.14C21.1467 32.14 20.3067 31.98 19.56 31.66C18.8133 31.3267 18.2267 30.86 17.8 30.26C17.3733 29.66 17.16 28.96 17.16 28.16H19.6C19.6533 28.76 19.8867 29.2533 20.3 29.64C20.7267 30.0267 21.32 30.22 22.08 30.22C22.8667 30.22 23.48 30.0333 23.92 29.66C24.36 29.2733 24.58 28.78 24.58 28.18C24.58 27.7133 24.44 27.3333 24.16 27.04C23.8933 26.7467 23.5533 26.52 23.14 26.36C22.74 26.2 22.18 26.0267 21.46 25.84C20.5533 25.6 19.8133 25.36 19.24 25.12C18.68 24.8667 18.2 24.48 17.8 23.96C17.4 23.44 17.2 22.7467 17.2 21.88C17.2 21.08 17.4 20.38 17.8 19.78C18.2 19.18 18.76 18.72 19.48 18.4C20.2 18.08 21.0333 17.92 21.98 17.92C23.3267 17.92 24.4267 18.26 25.28 18.94C26.1467 19.6067 26.6267 20.5267 26.72 21.7H24.2C24.16 21.1933 23.92 20.76 23.48 20.4C23.04 20.04 22.46 19.86 21.74 19.86C21.0867 19.86 20.5533 20.0267 20.14 20.36C19.7267 20.6933 19.52 21.1733 19.52 21.8C19.52 22.2267 19.6467 22.58 19.9 22.86C20.1667 23.1267 20.5 23.34 20.9 23.5C21.3 23.66 21.8467 23.8333 22.54 24.02C23.46 24.2733 24.2067 24.5267 24.78 24.78C25.3667 25.0333 25.86 25.4267 26.26 25.96C26.6733 26.48 26.88 27.18 26.88 28.06C26.88 28.7667 26.6867 29.4333 26.3 30.06C25.9267 30.6867 25.3733 31.1933 24.64 31.58C23.92 31.9533 23.0667 32.14 22.08 32.14ZM28.8103 26.48C28.8103 25.3467 29.037 24.3533 29.4903 23.5C29.957 22.6333 30.597 21.9667 31.4103 21.5C32.2236 21.0333 33.157 20.8 34.2103 20.8C35.5436 20.8 36.6436 21.12 37.5103 21.76C38.3903 22.3867 38.9836 23.2867 39.2903 24.46H36.8303C36.6303 23.9133 36.3103 23.4867 35.8703 23.18C35.4303 22.8733 34.877 22.72 34.2103 22.72C33.277 22.72 32.5303 23.0533 31.9703 23.72C31.4236 24.3733 31.1503 25.2933 31.1503 26.48C31.1503 27.6667 31.4236 28.5933 31.9703 29.26C32.5303 29.9267 33.277 30.26 34.2103 30.26C35.5303 30.26 36.4036 29.68 36.8303 28.52H39.2903C38.9703 29.64 38.3703 30.5333 37.4903 31.2C36.6103 31.8533 35.517 32.18 34.2103 32.18C33.157 32.18 32.2236 31.9467 31.4103 31.48C30.597 31 29.957 30.3333 29.4903 29.48C29.037 28.6133 28.8103 27.6133 28.8103 26.48ZM47.2625 20.8C48.1025 20.8 48.8492 20.98 49.5025 21.34C50.1692 21.7 50.6892 22.2333 51.0625 22.94C51.4492 23.6467 51.6425 24.5 51.6425 25.5V32H49.3825V25.84C49.3825 24.8533 49.1358 24.1 48.6425 23.58C48.1492 23.0467 47.4758 22.78 46.6225 22.78C45.7692 22.78 45.0892 23.0467 44.5825 23.58C44.0892 24.1 43.8425 24.8533 43.8425 25.84V32H41.5625V17.2H43.8425V22.26C44.2292 21.7933 44.7158 21.4333 45.3025 21.18C45.9025 20.9267 46.5558 20.8 47.2625 20.8ZM64.6508 26.22C64.6508 26.6333 64.6241 27.0067 64.5708 27.34H56.1508C56.2174 28.22 56.5441 28.9267 57.1308 29.46C57.7174 29.9933 58.4374 30.26 59.2908 30.26C60.5174 30.26 61.3841 29.7467 61.8908 28.72H64.3508C64.0174 29.7333 63.4108 30.5667 62.5308 31.22C61.6641 31.86 60.5841 32.18 59.2908 32.18C58.2374 32.18 57.2908 31.9467 56.4508 31.48C55.6241 31 54.9708 30.3333 54.4908 29.48C54.0241 28.6133 53.7908 27.6133 53.7908 26.48C53.7908 25.3467 54.0174 24.3533 54.4708 23.5C54.9374 22.6333 55.5841 21.9667 56.4108 21.5C57.2508 21.0333 58.2108 20.8 59.2908 20.8C60.3308 20.8 61.2574 21.0267 62.0708 21.48C62.8841 21.9333 63.5174 22.5733 63.9708 23.4C64.4241 24.2133 64.6508 25.1533 64.6508 26.22ZM62.2708 25.5C62.2574 24.66 61.9574 23.9867 61.3708 23.48C60.7841 22.9733 60.0574 22.72 59.1908 22.72C58.4041 22.72 57.7308 22.9733 57.1708 23.48C56.6108 23.9733 56.2774 24.6467 56.1708 25.5H62.2708ZM66.1345 26.44C66.1345 25.3333 66.3612 24.3533 66.8145 23.5C67.2812 22.6467 67.9079 21.9867 68.6945 21.52C69.4945 21.04 70.3812 20.8 71.3545 20.8C72.0745 20.8 72.7812 20.96 73.4745 21.28C74.1812 21.5867 74.7412 22 75.1545 22.52V17.2H77.4545V32H75.1545V30.34C74.7812 30.8733 74.2612 31.3133 73.5945 31.66C72.9412 32.0067 72.1879 32.18 71.3345 32.18C70.3745 32.18 69.4945 31.94 68.6945 31.46C67.9079 30.9667 67.2812 30.2867 66.8145 29.42C66.3612 28.54 66.1345 27.5467 66.1345 26.44ZM75.1545 26.48C75.1545 25.72 74.9945 25.06 74.6745 24.5C74.3679 23.94 73.9612 23.5133 73.4545 23.22C72.9479 22.9267 72.4012 22.78 71.8145 22.78C71.2279 22.78 70.6812 22.9267 70.1745 23.22C69.6679 23.5 69.2545 23.92 68.9345 24.48C68.6279 25.0267 68.4745 25.68 68.4745 26.44C68.4745 27.2 68.6279 27.8667 68.9345 28.44C69.2545 29.0133 69.6679 29.4533 70.1745 29.76C70.6945 30.0533 71.2412 30.2 71.8145 30.2C72.4012 30.2 72.9479 30.0533 73.4545 29.76C73.9612 29.4667 74.3679 29.04 74.6745 28.48C74.9945 27.9067 75.1545 27.24 75.1545 26.48ZM90.4292 20.98V32H88.1492V30.7C87.7892 31.1533 87.3159 31.5133 86.7292 31.78C86.1559 32.0333 85.5426 32.16 84.8892 32.16C84.0226 32.16 83.2426 31.98 82.5492 31.62C81.8692 31.26 81.3292 30.7267 80.9292 30.02C80.5426 29.3133 80.3492 28.46 80.3492 27.46V20.98H82.6092V27.12C82.6092 28.1067 82.8559 28.8667 83.3492 29.4C83.8426 29.92 84.5159 30.18 85.3692 30.18C86.2226 30.18 86.8959 29.92 87.3892 29.4C87.8959 28.8667 88.1492 28.1067 88.1492 27.12V20.98H90.4292ZM95.7175 17.2V32H93.4375V17.2H95.7175ZM108.811 26.22C108.811 26.6333 108.784 27.0067 108.731 27.34H100.311C100.378 28.22 100.704 28.9267 101.291 29.46C101.878 29.9933 102.598 30.26 103.451 30.26C104.678 30.26 105.544 29.7467 106.051 28.72H108.511C108.178 29.7333 107.571 30.5667 106.691 31.22C105.824 31.86 104.744 32.18 103.451 32.18C102.398 32.18 101.451 31.9467 100.611 31.48C99.7843 31 99.1309 30.3333 98.6509 29.48C98.1843 28.6133 97.9509 27.6133 97.9509 26.48C97.9509 25.3467 98.1776 24.3533 98.6309 23.5C99.0976 22.6333 99.7443 21.9667 100.571 21.5C101.411 21.0333 102.371 20.8 103.451 20.8C104.491 20.8 105.418 21.0267 106.231 21.48C107.044 21.9333 107.678 22.5733 108.131 23.4C108.584 24.2133 108.811 25.1533 108.811 26.22ZM106.431 25.5C106.418 24.66 106.118 23.9867 105.531 23.48C104.944 22.9733 104.218 22.72 103.351 22.72C102.564 22.72 101.891 22.9733 101.331 23.48C100.771 23.9733 100.438 24.6467 100.331 25.5H106.431Z" fill="black"/>
</svg>
