<svg width="81" height="80" viewBox="0 0 81 80" fill="none" xmlns="http://www.w3.org/2000/svg">
<path d="M79.4377 71.6856C77.1317 66.4507 65.8759 62.9869 58.3972 59.735C50.9184 56.483 51.9406 54.5107 51.6717 51.8147C51.6361 51.4574 51.6126 51.0788 51.5972 50.6904C53.8417 48.5259 55.6828 45.7106 56.9141 42.5036C56.9141 42.5036 56.9853 42.3237 57.0056 42.2689C57.2923 41.5003 57.5467 40.6989 57.7654 39.882C59.4793 39.5402 60.4781 37.7029 60.8604 36.0037C61.2459 35.316 62.047 33.6209 61.8632 31.6977C61.6372 29.3353 60.7032 28.1865 59.6292 27.6705C59.9183 26.9779 60.1856 26.2624 60.4027 25.551C61.5108 21.9188 60.4586 13.786 58.6402 9.30171C56.8225 4.81826 49.2328 1.40601 46.8271 1.50658C44.7397 1.59326 43.9832 2.53443 43.0509 3.19186C42.9172 2.51481 42.6111 1.90562 42.0287 1.47633C39.8287 -0.143535 32.8959 -0.865564 29.6778 1.61288C26.4596 4.09215 25.7023 5.43481 23.2269 8.99262C20.7508 12.5504 19.9424 21.2753 20.187 23.1347C20.3377 24.2869 20.8034 26.1202 21.3356 27.6885C20.2761 28.2135 19.3616 29.3623 19.138 31.6985C18.9542 33.6217 19.7553 35.3168 20.1408 36.0045C20.5288 37.7331 21.5559 39.6048 23.3258 39.8992C23.5453 40.7202 23.8037 41.5264 24.0936 42.3016C24.1123 42.3523 24.1325 42.4014 24.152 42.4512L24.1787 42.5183C25.4374 45.7899 27.3304 48.6568 29.6389 50.8359C29.6235 51.1736 29.6016 51.5032 29.5709 51.8155C29.3019 54.5123 30.0884 56.4838 22.6097 59.7358C15.1294 62.9869 3.87358 66.4507 1.5667 71.6856C-0.73937 76.9197 0.181601 80 0.181601 80H80.8147C80.8147 80 81.7446 76.9197 79.4377 71.6856Z" fill="#E99A01"/>
</svg>
